<svg xmlns:xlink="http://www.w3.org/1999/xlink" xmlns="http://www.w3.org/2000/svg" width="24" height="24" viewBox="0 0 24 24" fill="none"><path d="M21.196 11.4057C21.3096 11.1653 22.4159 8.76955 21.1429 6.31952C21.0141 6.06366 19.7866 3.7842 17.271 3.49733C15.2327 3.26473 13.1489 4.46649 11.9896 6.56762C10.5727 4.2649 8.16313 3.11742 6.02635 3.62138C4.3139 4.03231 3.0485 5.43565 2.54083 6.84674C1.22239 10.483 4.73822 14.5612 6.06424 16.0964C8.0722 18.4224 10.3226 19.7559 11.9821 20.5312C12.467 20.3064 12.9898 20.0273 13.5278 19.6784C13.846 19.4768 14.134 19.2675 14.4068 19.0659" stroke="#333333" stroke-width="1.4px" stroke-linecap="round" stroke-linejoin="round" fill="none"></path><path d="M18.0938 12V19.3125" stroke="#333333" stroke-width="1.4px" stroke-linecap="round" stroke-linejoin="round" fill="none"></path><path d="M14.4375 15.6562H21.75" stroke="#333333" stroke-width="1.4px" stroke-linecap="round" stroke-linejoin="round" fill="none"></path></svg>