<svg xmlns:xlink="http://www.w3.org/1999/xlink" xmlns="http://www.w3.org/2000/svg" width="32" height="32" viewBox="0 0 32 32" fill="none" style="margin-bottom: 6px;"><rect width="32" height="32" rx="8" fill="#FAFAFA"></rect><rect x="5.89941" y="10.3398" width="19.5898" height="11.6088" rx="2.5278" fill="#CFEBFE"></rect><path d="M24.038 17.958V13.9443C24.038 11.561 24.038 10.3694 23.2976 9.62905C22.5573 8.88867 21.3657 8.88867 18.9824 8.88867H8.77825C6.39502 8.88867 5.20341 8.88867 4.46303 9.62905C3.72266 10.3694 3.72266 11.561 3.72266 13.9443V15.4419C3.72266 17.8251 3.72266 19.0167 4.46303 19.7571C5.20341 20.4975 6.39502 20.4975 8.77825 20.4975H17.8709H20.4103" stroke="#0A0A0A" stroke-width="1.2px" stroke-linecap="round" fill="none"></path><path d="M11.8447 13.2661H16.4917" stroke="#1967F2" stroke-linecap="round" stroke-linejoin="round" fill="none"></path><path d="M11.8447 11.4983H16.4917" stroke="#1967F2" stroke-linecap="round" stroke-linejoin="round" fill="none"></path><path d="M13.1517 11.4983C13.6524 11.4983 14.1326 11.6972 14.4866 12.0512C14.8406 12.4053 15.0395 12.8854 15.0395 13.3861C15.0395 13.8868 14.8406 14.367 14.4866 14.721C14.1326 15.0751 13.6524 15.274 13.1517 15.274H11.8447L15.0395 18.1783" stroke="#1967F2" stroke-linecap="round" stroke-linejoin="round" fill="none"></path><g clip-path="url(#NoCOD_a)" fill="none"><path d="M26.875 16.0703L20.125 22.8203" stroke="#1967F2" stroke-width="3px" stroke-linecap="square" stroke-linejoin="round" fill="none"></path><path d="M26.875 22.8203L20.125 16.0703" stroke="#1967F2" stroke-width="3px" stroke-linecap="square" stroke-linejoin="round" fill="none"></path></g><defs><clipPath id="NoCOD_a"><rect width="12" height="12" fill="white" transform="translate(17.5 13.4453)"></rect></clipPath></defs></svg>