<svg xmlns:xlink="http://www.w3.org/1999/xlink" xmlns="http://www.w3.org/2000/svg" width="32" height="32" viewBox="0 0 32 32" fill="none" style="margin-bottom: 6px;"><path d="M0 16C0 8.45753 0 4.68629 2.34315 2.34315C4.68629 0 8.45753 0 16 0C23.5425 0 27.3137 0 29.6569 2.34315C32 4.68629 32 8.45753 32 16C32 23.5425 32 27.3137 29.6569 29.6569C27.3137 32 23.5425 32 16 32C8.45753 32 4.68629 32 2.34315 29.6569C0 27.3137 0 23.5425 0 16Z" fill="#FAFAFA"></path><path d="M17.1477 27.286C22.9199 27.286 27.5991 22.6068 27.5991 16.8346C27.5991 11.0624 22.9199 6.38318 17.1477 6.38318C11.3755 6.38318 6.69629 11.0624 6.69629 16.8346C6.69629 22.6068 11.3755 27.286 17.1477 27.286Z" fill="#CFEBFE"></path><path d="M26.1586 15.2602C26.1586 9.48807 21.4794 4.80884 15.7072 4.80884C9.9351 4.80884 5.25586 9.48807 5.25586 15.2602C5.25586 21.0323 9.9351 25.7116 15.7072 25.7116C17.9529 25.7116 20.0332 25.0033 21.7369 23.7979" stroke="#0A0A0A" stroke-width="1.2px" stroke-linecap="round" stroke-linejoin="round" fill="none"></path><path d="M26.4529 16.6703C26.3206 16.8995 26.2545 17.014 26.1552 17.014C26.056 17.014 25.9898 16.8995 25.8575 16.6703L24.5102 14.3367C24.3779 14.1075 24.3118 13.993 24.3614 13.907C24.411 13.8211 24.5433 13.8211 24.8079 13.8211L27.5025 13.8211C27.7671 13.8211 27.8994 13.8211 27.9491 13.907C27.9987 13.993 27.9325 14.1075 27.8002 14.3367L26.4529 16.6703Z" fill="#0A0A0A"></path><g clip-path="url(#NoReturns_a)" fill="none"><path d="M18.7295 12.5416L12.542 18.7291" stroke="#1967F2" stroke-width="2.75px" stroke-linecap="square" stroke-linejoin="round" fill="none"></path><path d="M18.7295 18.7291L12.542 12.5416" stroke="#1967F2" stroke-width="2.75px" stroke-linecap="square" stroke-linejoin="round" fill="none"></path></g><defs><clipPath id="NoReturns_a"><rect width="11" height="11" fill="white" transform="translate(10.25 10.25)"></rect></clipPath></defs></svg>