<svg xmlns:xlink="http://www.w3.org/1999/xlink" xmlns="http://www.w3.org/2000/svg" width="16" height="16" viewBox="0 0 16 16" fill="none"><path d="M10.7852 4.62843H13.2575C13.35 4.62783 13.4405 4.65522 13.5172 4.70701C13.5938 4.7588 13.653 4.83256 13.6869 4.91861L14.4994 6.94986" stroke="#333333" stroke-width="1.2px" stroke-linecap="round" stroke-linejoin="round" fill="none"></path><path d="M1.5 8.34277H10.7857" stroke="#333333" stroke-width="1.2px" stroke-linecap="round" stroke-linejoin="round" fill="none"></path><path d="M11.4827 12.5216C12.252 12.5216 12.8756 11.898 12.8756 11.1287C12.8756 10.3594 12.252 9.73584 11.4827 9.73584C10.7134 9.73584 10.0898 10.3594 10.0898 11.1287C10.0898 11.898 10.7134 12.5216 11.4827 12.5216Z" stroke="#333333" stroke-width="1.2px" stroke-miterlimit="10" fill="none"></path><path d="M4.51786 12.5216C5.28711 12.5216 5.91072 11.898 5.91072 11.1287C5.91072 10.3594 5.28711 9.73584 4.51786 9.73584C3.7486 9.73584 3.125 10.3594 3.125 11.1287C3.125 11.898 3.7486 12.5216 4.51786 12.5216Z" stroke="#333333" stroke-width="1.2px" stroke-miterlimit="10" fill="none"></path><path d="M10.0887 11.1284H5.91016" stroke="#333333" stroke-width="1.2px" stroke-linecap="round" stroke-linejoin="round" fill="none"></path><path d="M3.125 11.1288H1.96429C1.84115 11.1288 1.72306 11.0799 1.63599 10.9928C1.54892 10.9057 1.5 10.7876 1.5 10.6645V4.16448C1.5 4.04134 1.54892 3.92325 1.63599 3.83618C1.72306 3.74911 1.84115 3.7002 1.96429 3.7002H10.7857V9.92163" stroke="#333333" stroke-width="1.2px" stroke-linecap="round" stroke-linejoin="round" fill="none"></path><path d="M10.7852 6.9502H14.4994V10.6645C14.4994 10.7876 14.4505 10.9057 14.3635 10.9928C14.2764 11.0799 14.1583 11.1288 14.0352 11.1288H12.8744" stroke="#333333" stroke-width="1.2px" stroke-linecap="round" stroke-linejoin="round" fill="none"></path><path d="M1.35352 0.646484L14.3535 13.6465" stroke="#333333" stroke-linecap="round" fill="none"></path></svg>