<svg xmlns:xlink="http://www.w3.org/1999/xlink" xmlns="http://www.w3.org/2000/svg" width="16" height="16" fill="none" viewBox="0 0 24 24"><path d="M4.5 13.054v6.219c0 .192.079.378.22.514.14.136.33.213.53.213h13.5c.199 0 .39-.077.53-.213a.717.717 0 0 0 .22-.514v-6.219M5.063 4h13.875c.162.001.32.053.45.148s.225.228.271.38L21 9.09H3l1.34-4.564a.737.737 0 0 1 .272-.379.775.775 0 0 1 .45-.148v0Z" stroke="#333333" stroke-width="1.4px" stroke-linecap="round" stroke-linejoin="round" fill="none"></path><path d="M9 9.09v1.456c0 .771-.316 1.511-.879 2.056A3.048 3.048 0 0 1 6 13.455a3.048 3.048 0 0 1-2.121-.853A2.865 2.865 0 0 1 3 10.546V9.09M15 9.09v1.456c0 .771-.316 1.511-.879 2.056a3.048 3.048 0 0 1-2.121.853 3.048 3.048 0 0 1-2.121-.853A2.865 2.865 0 0 1 9 10.546V9.09M21 9.09v1.456c0 .771-.316 1.511-.879 2.056a3.048 3.048 0 0 1-2.121.853 3.048 3.048 0 0 1-2.122-.853A2.865 2.865 0 0 1 15 10.546V9.09" stroke="#333333" stroke-width="1.4px" stroke-linecap="round" stroke-linejoin="round" fill="none"></path></svg>